<?xml version="1.0"?>
<svg version="1.1" xmlns="http://www.w3.org/2000/svg" xmlns:xlink="http://www.w3.org/1999/xlink" width="510" height="86">
    <desc iVinci="yes" version="4.6" gridStep="20" showGrid="no" snapToGrid="no" codePlatform="0"/>
    <g id="Layer1" name="Layer 1" opacity="1">
        <g id="Shape1">
            <desc shapeID="1" type="0" basicInfo-basicType="0" basicInfo-roundedRectRadius="12" basicInfo-polygonSides="6" basicInfo-starPoints="5" bounding="rect(-42.7635,-42.7645,85.527,85.529)" text="" font-familyName="" font-pixelSize="20" font-bold="0" font-underline="0" font-alignment="1" strokeStyle="0" markerStart="0" markerEnd="0" shadowEnabled="0" shadowOffsetX="0" shadowOffsetY="2" shadowBlur="4" shadowOpacity="160" blurEnabled="0" blurRadius="4" transform="matrix(1,0,0,1,42.7635,42.7645)" pers-center="0,0" pers-size="0,0" pers-start="0,0" pers-end="0,0" locked="0" mesh="" flag=""/>
            <path id="shapePath1" d="M12.83,5.7 L21.61,5.7 L21.61,0 L12.83,0 C10.397,0 8.03,0.682999 5.98,1.98 L9.027,6.794 C10.163,6.08 11.475,5.7 12.83,5.7 M5.704,12.827 C5.704,11.785 5.92,10.785 6.35,9.847 L1.172,7.46 C0.394001,9.15 0,10.956 0,12.826 L0,22.92 L5.704,22.92 L5.704,12.828 L5.704,12.827 M0,28.68 L5.704,28.68 L5.704,43.05 L0,43.05 L0,28.68 M76.782,6.98 C78.5,5.888 80.214,4.858 81.912,3.9 C80.942,2.9 79.808,2.058 78.576,1.422 C76.773,0.492001 74.74,0 72.7,0 L67.653,0 L67.653,5.7 L72.7,5.7 C74.195,5.7 75.605,6.15 76.782,6.98 M0,48.81 L5.704,48.81 L5.704,63.207 L0,63.207 L0,48.81 M27.37,0 L41.74,0 L41.74,5.7 L27.37,5.7 L27.37,0 M47.497,0 L61.893,0 L61.893,5.7 L47.497,5.7 L47.497,0 M53.855,79.824 L68.222,79.824 L68.222,85.529 L53.855,85.529 L53.855,79.824 M79.827,32.387 L85.527,32.387 L85.527,46.785 L79.827,46.785 L79.827,32.387 M79.827,52.542 L85.527,52.542 L85.527,66.914 L79.827,66.914 L79.827,52.542 M5.704,72.7 L5.704,68.96 L0,68.96 L0,72.7 C0,77.367 2.54,81.675 6.63,83.935 L9.39,78.945 C7.115,77.685 5.704,75.295 5.704,72.699 M79.827,22.839 L79.827,26.609 L85.527,26.609 L85.527,18.149 C83.653,19.549 81.757,21.109 79.827,22.839 Z" style="stroke:none;fill-rule:nonzero;fill:#2d2d2d;fill-opacity:1;"/>
        </g>
        <g id="Shape2">
            <desc shapeID="2" type="0" basicInfo-basicType="0" basicInfo-roundedRectRadius="12" basicInfo-polygonSides="6" basicInfo-starPoints="5" bounding="rect(-35.9935,-6.4295,71.987,12.859)" text="" font-familyName="" font-pixelSize="20" font-bold="0" font-underline="0" font-alignment="1" strokeStyle="0" markerStart="0" markerEnd="0" shadowEnabled="0" shadowOffsetX="0" shadowOffsetY="2" shadowBlur="4" shadowOpacity="160" blurEnabled="0" blurRadius="4" transform="matrix(1,0,0,1,49.5355,79.0995)" pers-center="0,0" pers-size="0,0" pers-start="0,0" pers-end="0,0" locked="0" mesh="" flag=""/>
            <path id="shapePath2" d="M79.827,72.7 C79.827,76.274 77.16,79.313 73.624,79.77 L74.35,85.424 C77.42,85.028 80.247,83.53 82.306,81.204 C84.384,78.857 85.529,75.838 85.529,72.698 L85.529,72.67 L79.819,72.67 L79.819,72.7 L79.827,72.7 M13.542,79.824 L27.94,79.824 L27.94,85.529 L13.542,85.529 L13.542,79.824 M33.696,79.824 L48.096,79.824 L48.096,85.529 L33.696,85.529 L33.696,79.824 Z" style="stroke:none;fill-rule:nonzero;fill:#2d2d2d;fill-opacity:1;"/>
        </g>
        <g id="Shape3">
            <desc shapeID="3" type="0" basicInfo-basicType="0" basicInfo-roundedRectRadius="12" basicInfo-polygonSides="6" basicInfo-starPoints="5" bounding="rect(-41.2025,-35.569,82.405,71.138)" text="" font-familyName="" font-pixelSize="20" font-bold="0" font-underline="0" font-alignment="1" strokeStyle="0" markerStart="0" markerEnd="0" shadowEnabled="0" shadowOffsetX="0" shadowOffsetY="2" shadowBlur="4" shadowOpacity="160" blurEnabled="0" blurRadius="4" transform="matrix(1,0,0,1,54.2625,36.571)" pers-center="0,0" pers-size="0,0" pers-start="0,0" pers-end="0,0" locked="0" mesh="" flag=""/>
            <path id="shapePath3" d="M13.06,45.396 L39.802,72.14 C39.802,72.14 66.548,20.687 95.465,9.146 L94.38,1.002 C78.633,7.246 54.734,23.675 37.088,48.79 L18.488,37.793 L13.06,45.396 Z" style="stroke:none;fill-rule:nonzero;fill:#af2f2f;fill-opacity:1;"/>
        </g>
    </g>
    <g id="Layer2" name="Layer 3" opacity="1">
        <g id="Shape4">
            <desc shapeID="4" type="2" basicInfo-basicType="0" basicInfo-roundedRectRadius="12" basicInfo-polygonSides="6" basicInfo-starPoints="5" bounding="rect(-74.5,-28,149,56)" text="Flux" font-familyName="4f0cf0723866bfb97240ea41fdc16711ee3f68548b20a287467a9957e91a583d" font-pixelSize="88" font-bold="0" font-underline="0" font-alignment="1" strokeStyle="0" markerStart="0" markerEnd="0" shadowEnabled="0" shadowOffsetX="0" shadowOffsetY="2" shadowBlur="4" shadowOpacity="160" blurEnabled="0" blurRadius="4" transform="matrix(1,0,0,1,412.398,45.4733)" pers-center="0,0" pers-size="0,0" pers-start="0,0" pers-end="0,0" locked="0" mesh="" flag=""/>
            <path id="shapePath4" d="M357.337,75.692 L357.337,67.42 L344.401,66.716 C343.081,66.54 342.993,66.364 342.993,64.956 L342.993,49.732 L361.561,49.732 L361.561,37.852 L342.993,37.852 L342.993,23.42 L352.497,23.42 C353.465,23.42 353.817,23.684 353.993,24.564 L355.225,31.252 L367.193,31.692 L367.193,11.98 L319.145,11.98 L319.145,20.252 L324.689,20.868 C325.921,20.956 326.097,21.308 326.097,22.628 L326.097,65.132 C326.097,66.452 325.921,66.716 324.689,66.892 L319.145,67.508 L319.145,75.692 L357.337,75.692 M398.418,75.692 L398.418,67.42 L394.634,66.804 C393.314,66.628 393.225,66.452 393.225,65.044 L393.225,9.252 L372.194,9.252 L371.049,17.788 L375.626,19.46 C376.505,19.812 376.77,20.34 376.77,21.308 L376.77,65.044 C376.77,66.364 376.594,66.628 375.362,66.804 L371.665,67.332 L371.665,75.692 L398.418,75.692 M452.535,75.692 L452.535,67.332 L448.311,66.716 C447.167,66.54 447.079,66.1 447.079,65.132 L447.079,29.492 L426.927,29.492 L425.871,38.204 L429.215,38.82 C430.535,38.996 430.623,39.172 430.623,40.58 L430.623,62.14 C429.303,63.02 427.191,64.076 424.639,64.076 C421.911,64.076 421.295,62.404 421.295,58.444 L421.295,29.492 L400.439,29.492 L399.383,38.204 L403.431,38.82 C404.751,38.996 404.839,39.172 404.839,40.58 L404.839,61.612 C404.839,71.82 408.711,76.748 417.687,76.748 C424.991,76.748 429.303,73.756 432.647,71.38 L433.175,71.556 L433.879,75.692 L452.535,75.692 M507,75.692 L507,67.42 L503.656,66.804 C502.6,66.628 502.248,66.1 501.368,65.22 L489.224,50.964 L499.52,40.492 C500.4,39.788 500.664,39.172 501.72,38.82 L505.68,37.94 L505.68,29.492 L485.088,29.492 L484.208,37.94 L488.696,38.644 L482.624,44.804 L477.52,38.644 L481.128,37.94 L481.128,29.492 L455.08,29.492 L454.2,37.94 L457.544,38.908 C458.6,39.26 458.864,39.612 459.656,40.404 L471.624,54.044 L460.536,65.308 C459.656,66.1 459.216,66.628 458.16,66.804 L454.64,67.508 L454.64,75.692 L476.464,75.692 L476.464,67.42 L472.064,66.628 L478.136,60.292 L482.976,66.716 L479.544,67.508 L479.544,75.692 L507,75.692 Z" style="stroke:none;fill-rule:nonzero;fill:#af2f2f;fill-opacity:1;"/>
        </g>
    </g>
    <g id="Layer3" name="Layer 4" opacity="1">
        <g id="Shape5">
            <desc shapeID="5" type="2" basicInfo-basicType="0" basicInfo-roundedRectRadius="12" basicInfo-polygonSides="6" basicInfo-starPoints="5" bounding="rect(-51,-52,102,104)" text="Todo" font-familyName="4f0cf0723866bfb97240ea41fdc16711ee3f68548b20a287467a9957e91a583d" font-pixelSize="88" font-bold="0" font-underline="0" font-alignment="0" strokeStyle="0" markerStart="0" markerEnd="0" shadowEnabled="0" shadowOffsetX="0" shadowOffsetY="2" shadowBlur="4" shadowOpacity="160" blurEnabled="0" blurRadius="4" transform="matrix(1,0,0,1,152.5,45.4733)" pers-center="0,0" pers-size="0,0" pers-start="0,0" pers-end="0,0" locked="0" mesh="" flag=""/>
            <path id="shapePath5" d="M152.804,75.692 L152.804,67.42 L143.124,66.716 C141.804,66.628 141.716,66.276 141.716,65.044 L141.716,23.508 L148.052,23.508 C149.02,23.508 149.284,23.596 149.46,24.476 L150.868,32.132 L162.66,32.132 L162.66,11.98 L103.7,11.98 L103.7,32.132 L115.668,32.132 L117.076,24.476 C117.252,23.596 117.516,23.508 118.484,23.508 L124.82,23.508 L124.82,65.044 C124.82,66.364 124.644,66.716 123.412,66.804 L114.348,67.42 L114.348,75.692 L152.804,75.692 M185.186,76.748 C202.082,76.748 209.65,66.98 209.65,51.932 C209.65,38.292 203.05,28.524 186.066,28.524 C169.258,28.524 161.338,38.116 161.338,52.372 C161.338,66.804 168.378,76.748 185.186,76.748 M185.538,65.66 C181.314,65.66 178.586,62.492 178.586,52.46 C178.586,42.428 181.754,39.876 185.802,39.876 C189.85,39.876 192.49,42.604 192.49,52.372 C192.49,62.668 189.586,65.66 185.538,65.66 M265.35,75.692 L265.35,67.42 L261.302,66.804 C259.982,66.628 259.894,66.452 259.894,65.132 L259.894,9.252 L239.654,9.252 L238.51,17.788 L243.086,19.46 C243.966,19.812 244.23,20.34 244.23,21.308 L244.23,32.748 C240.974,30.284 237.454,28.524 232.438,28.524 C223.198,28.524 213.694,34.948 213.694,52.9 C213.694,70.06 220.47,76.748 231.03,76.748 C237.19,76.748 241.414,74.284 244.846,70.588 L245.55,70.764 L246.518,75.692 L265.35,75.692 M243.526,62.932 C241.854,63.812 239.918,64.164 238.246,64.164 C233.054,64.164 231.03,58.972 231.03,52.636 C231.03,46.388 233.142,41.02 238.598,41.02 C239.918,41.02 241.59,41.372 243.526,42.34 L243.526,62.932 M290.858,76.748 C307.754,76.748 315.322,66.98 315.322,51.932 C315.322,38.292 308.722,28.524 291.738,28.524 C274.93,28.524 267.01,38.116 267.01,52.372 C267.01,66.804 274.05,76.748 290.858,76.748 M291.21,65.66 C286.986,65.66 284.258,62.492 284.258,52.46 C284.258,42.428 287.426,39.876 291.474,39.876 C295.522,39.876 298.162,42.604 298.162,52.372 C298.162,62.668 295.258,65.66 291.21,65.66 Z" style="stroke:none;fill-rule:nonzero;fill:#2d2d2d;fill-opacity:1;"/>
        </g>
    </g>
</svg>
