<svg xmlns="http://www.w3.org/2000/svg" width="510" height="86"><desc/><g><g><desc/><path d="M12.83 5.7h8.78V0h-8.78c-2.433 0-4.8.683-6.85 1.98l3.047 4.814C10.163 6.08 11.475 5.7 12.83 5.7m-7.126 7.127c0-1.042.216-2.042.646-2.98L1.172 7.46C.394 9.15 0 10.956 0 12.826V22.92h5.704V12.828M0 28.68h5.704v14.37H0V28.68m76.782-21.7c1.718-1.092 3.432-2.122 5.13-3.08-.97-1-2.104-1.842-3.336-2.478C76.773.492 74.74 0 72.7 0h-5.047v5.7H72.7c1.495 0 2.905.45 4.082 1.28M0 48.81h5.704v14.397H0V48.81M27.37 0h14.37v5.7H27.37V0m20.127 0h14.396v5.7H47.497V0m6.358 79.824h14.367v5.705H53.855v-5.706m25.972-47.437h5.7v14.398h-5.7V32.387m0 20.155h5.7v14.372h-5.7V52.542M5.704 72.7v-3.74H0v3.74c0 4.667 2.54 8.975 6.63 11.235l2.76-4.99c-2.275-1.26-3.686-3.65-3.686-6.246m74.123-49.86v3.77h5.7v-8.46c-1.874 1.4-3.77 2.96-5.7 4.69z" fill="#2d2d2d"/></g><g><desc/><path d="M79.827 72.7c0 3.574-2.667 6.613-6.203 7.07l.726 5.654c3.07-.396 5.897-1.894 7.956-4.22 2.078-2.347 3.223-5.366 3.223-8.506v-.028h-5.71v.03h.007m-66.285 7.124H27.94v5.705H13.542v-5.706m20.154 0h14.4v5.705h-14.4v-5.706z" fill="#2d2d2d"/></g><g><desc/><path d="M13.06 45.396L39.802 72.14S66.548 20.687 95.465 9.146L94.38 1.002C78.633 7.246 54.734 23.675 37.088 48.79l-18.6-10.997-5.428 7.603z" fill="#af2f2f"/></g></g><g><desc/><path d="M357.337 75.692V67.42l-12.936-.704c-1.32-.176-1.407-.352-1.407-1.76V49.732h18.568v-11.88h-18.567V23.42h9.504c.968 0 1.32.264 1.496 1.144l1.232 6.688 11.968.44V11.98h-48.048v8.272l5.544.616c1.23.088 1.407.44 1.407 1.76v42.504c0 1.32-.176 1.584-1.408 1.76l-5.545.616v8.184h38.192m41.08 0V67.42l-3.783-.616c-1.32-.176-1.41-.352-1.41-1.76V9.252h-21.03l-1.145 8.536 4.576 1.672c.88.352 1.144.88 1.144 1.848v43.736c0 1.32-.176 1.584-1.408 1.76l-3.697.528v8.36h26.753m54.117 0v-8.36l-4.224-.616c-1.143-.176-1.23-.616-1.23-1.584v-35.64h-20.153l-1.056 8.712 3.345.616c1.32.176 1.408.352 1.408 1.76v21.56c-1.32.88-3.432 1.936-5.984 1.936-2.73 0-3.345-1.672-3.345-5.632V29.492H400.44l-1.057 8.712 4.048.616c1.32.176 1.41.352 1.41 1.76v21.032c0 10.208 3.87 15.136 12.847 15.136 7.304 0 11.616-2.992 14.96-5.368l.528.176.704 4.136h18.655m54.465 0V67.42l-3.344-.616c-1.056-.176-1.408-.704-2.288-1.584l-12.144-14.256 10.296-10.472c.88-.704 1.144-1.32 2.2-1.672l3.96-.88v-8.448h-20.592l-.88 8.448 4.488.704-6.072 6.16-5.104-6.16 3.608-.704v-8.448H455.08l-.88 8.448 3.344.968c1.056.352 1.32.704 2.112 1.496l11.968 13.64-11.088 11.264c-.88.792-1.32 1.32-2.376 1.496l-3.52.704v8.184h21.824V67.42l-4.4-.792 6.072-6.336 4.84 6.424-3.432.792v8.184H507z" fill="#af2f2f"/></g><g><desc/><path d="M152.804 75.692V67.42l-9.68-.704c-1.32-.088-1.408-.44-1.408-1.672V23.508h6.336c.968 0 1.232.088 1.408.968l1.408 7.656h11.792V11.98H103.7v20.152h11.968l1.408-7.656c.176-.88.44-.968 1.408-.968h6.336v41.536c0 1.32-.176 1.672-1.408 1.76l-9.064.616v8.272h38.456m32.382 1.056c16.896 0 24.464-9.768 24.464-24.816 0-13.64-6.6-23.408-23.584-23.408-16.808 0-24.728 9.592-24.728 23.848 0 14.432 7.04 24.376 23.848 24.376m.352-11.088c-4.224 0-6.952-3.168-6.952-13.2s3.168-12.584 7.216-12.584 6.688 2.728 6.688 12.496c0 10.296-2.904 13.288-6.952 13.288m79.812 10.032V67.42l-4.048-.616c-1.32-.176-1.408-.352-1.408-1.672V9.252h-20.24l-1.144 8.536 4.576 1.672c.88.352 1.144.88 1.144 1.848v11.44c-3.256-2.464-6.776-4.224-11.792-4.224-9.24 0-18.744 6.424-18.744 24.376 0 17.16 6.776 23.848 17.336 23.848 6.16 0 10.384-2.464 13.816-6.16l.704.176.968 4.928h18.832m-21.824-12.76c-1.672.88-3.608 1.232-5.28 1.232-5.192 0-7.216-5.192-7.216-11.528 0-6.248 2.112-11.616 7.568-11.616 1.32 0 2.992.352 4.928 1.32v20.592m47.332 13.816c16.896 0 24.464-9.768 24.464-24.816 0-13.64-6.6-23.408-23.584-23.408-16.808 0-24.728 9.592-24.728 23.848 0 14.432 7.04 24.376 23.848 24.376m.352-11.088c-4.224 0-6.952-3.168-6.952-13.2s3.168-12.584 7.216-12.584 6.688 2.728 6.688 12.496c0 10.296-2.904 13.288-6.952 13.288z" fill="#2d2d2d"/></g></svg>